<svg xmlns="http://www.w3.org/2000/svg" height="308" width="414" version="1.1"
     xmlns:xlink="http://www.w3.org/1999/xlink" viewBox="0 0 414 308">
    <defs>
        <filter id="b" style="color-interpolation-filters:sRGB">
            <feGaussianBlur stdDeviation="2.313817"/>
        </filter>
    </defs>
    <path id="a"
          d="m120.77 186.11c-0.04 0.13-0.08 0.25-0.12 0.38 1.74 15.02 19.1 20.09 17.95 35.45-3.97 4.61-4.85 11.56-10.58 14.43-0.8 0.57-1.69 1.02-2.09 1.61 0.21 1.32 1.34 2.47 2.65 2.7 11.18-5.41 19.17 5.57 30.23 8.05 4.17 6.89 16.49 19.61 24.53 11.93 8.92-0.07 14.23 5.79 21.26 9.28 2.46 3.72 8.25 5.21 7.81 10.59 0.93 0.45 2.15 0.93 3.16 1.16 0.47-0.09 0.87-0.3 1.27-0.52 2.1-6.24 13.23-5.11 13.92-13.18 0.55-0.37 1.07-0.84 1.56-1.33 2.28-0.41 4.71-0.38 6.78 0.78 9.36 0.39 18.6 3.06 26.44 7.01-1.42 2.29 1.12 4.22 0.98 6.41-1.46 1.29-5.33 1.53-4.11 4.3 2.13 6.99 9.73 3.73 13.91 8.07 1.41 0.2 3.29 0.35 4.47-0.1 0.39-0.6 0.83-1.17 1.16-1.83 0.08-5.88 5.22-9.91 1.48-15.55 4.99-2.8 4.36-7.99 5.3-12.69 9.38 0.94 21.72 0.51 35.21 6.22 0.77-0.56 2-0.67 2.86-1.14 0.75-12.19 16.94-7.9 20.03-16.92 7.53-6.48 9.41-17.39 11.62-27.23-4.89-0.55-9.94-1.93-13.5-5.09 0.89-3.2 0.14-5.93-2.35-7.96 1.28-3.52 5.83-9.34 9.43-5.09 1.11-5.93 5.73-10.37 9.74-14.7-0.25-2.33-1.79-5.43 2.01-6 0.19-0.72 0.29-1.57 0.06-2.46-4.7-2.45-3.47-8.77-2.48-12.99 10.91-3.48 3.28-16.78 11.41-21.92 0.63 0.28 1.36 0.81 1.87 2.12 0.76 0.58 1.8 0.87 2.62 1.38 5.38-0.86 10.56-1.72 15.58-4.1 0.79-1.14 1.45-2.37 1.71-3.75-3.8-4.33-3.08-8.22-2.16-13.7 6.59-2.22 6.33-10.19 5.41-15.98-8.29-1.5-16.52-8.06-16.94-17.083-13.87-7.275-21.27-21.535-28.98-34.005-0.49-0.47-0.96-0.98-1.34-1.46-2.03 0.34-4.15 0.36-6.18-0.02-1.36-1.23-0.83-3.68-2.76-4.25 0.92-6.95-0.75-12.54-6.33-16.65-0.22-5.31 3.87-10.11 2.61-15.63-1.98-2.8-5.3-3.98-7.49-6.51-0.46-0.87-0.74-1.92-1.28-2.7-0.21-2.12 0.66-4.31 2.32-5.5197 0.11-0.67-0.06-1.34-0.63-2.18-1.19-0.45-3.07-0.3-4.49-0.1-3.26 2.29-6.66 4.4297-10.91 4.0997 0.15 9.81-9.71 2.23-15.31 5.15-4.79-1.03-5.12-6.18-6.52-9.9197-0.97-0.63-2.25-1.01-3-0.92-3.17 0.29-1.65 5.9697-5.27 3.9997-2.53 10.4-10.65 19.66-7.7 30.75-3.05 0.29-5.87 2.54-8.86 1.13-1.12-1.96 0.02-4.31-0.93-6.19-9.52-1.29-11.58-11.15-17-17.02-0.89-0.44-2.09-0.57-2.86-1.12-0.83-0.08-1.74-0.12-2.63 0.06-14.64 8.68-23.49 23.11-14.14 40.16 0 0.77-0.1 1.53-0.31 2.38-1.24 1.75-3.38 1.75-5.27 1.98-8.75-10.39-14.16-25.51-12.13-40.27-0.21-0.35-0.42-0.72-0.65-1.15-0.44-0.14-0.88-0.27-1.48-0.12-2.57 2.87-4.69 5.95-7.53 8.48-6.26 0.72-12.41-0.75-18.4-2.99-0.52-1.14-0.25-3.1-0.81-4.06-1.24-0.39-2.56-0.7-3.65-1.47-0.81-0.07-1.71-0.11-2.53 0.12-0.15 0.43-0.28 0.87-0.13 1.49 0.34 0.35 0.66 0.71 0.88 1.15 6.16 7.51-4.41 14.65-0.61 22.09-0.15 0.68-0.5 1.5-1.01 2.25-0.97-0.12-2.79 0.48-3.95 1.23-1.44-0.54-2.68-1.08-4.04-1.75-1.79 0.39-3.74 0.16-5.17 1.54-0.67 1.63-0.73 3.55-1.8 5.05-3.23-1.07-6.07 1-9.26 0.44-2.62-5.37-1.96-12.36-7.35-16.61-0.53-0.04-1.06-0.07-1.62 0.08-5.61 4.37-4.09 13.1-6.94 18.22-3.32 1.28-7.33-0.02-9.32 4-5.98-1.58-11.05-5.81-16.98-7.44-0.62 0.04-1.22 0.07-1.8 0.2-7.95 9.24-18.23 14.4-25.505 23.48-0.88 0.39-2.08 0.53-2.75 0.7-4.28-3.07-4.92-9.9-10.49-11.65-8.25 0.12-9.09 9.72-14.47 12.26-0.33-0.01-0.67-0.01-1-0.02-2.23-3.04-2.13-7.06-2.55-10.45-9.09 0.08-17.58 3.39-27.15 2.75-0.33 0.34-0.7 0.64-1.07 0.93-0.68 3.03-0.72 6.38-1.86 9.15-5.1 1.2-8.8 6.39-11.17 10.85 0.41 4.345 1.48 9.468 5.64 11.948-6.44 10.92-1.58 24.89-11.62 33.06-0.1201 0.57-0.1601 1.18-0.1901 1.79 1.09 1.79 1.12 3.9 2.25 5.7 0.34 0.32 0.65 0.69 0.95 1.06 2.8201 1.2 3.7901-2.54 6.2601-2.11 0.19 10.35 12.35 10.76 20.19 11.65 3.79 5.2 5.59 10.69 10.78 15.06 4.99 0.82 10.2-1.54 14.99 0.17 0.68 2.55 1.27 5.25 1.79 7.9-1.4 0.51-2.04 1.75-3.02 2.77-0.23 1.18-0.24 2.52 0.08 3.49 0.33 0.33 0.63 0.69 0.93 1.06 6.43 0.92 12.97 4.52 15.04 10.98 1.13 0.84 2.49 1.16 3.43 0.93 0-3.09 2.14-5.38 2.59-8.39 0.34-0.32 0.64-0.69 0.94-1.06 2.77-0.48 5.605-1 8.215-1.77 0.32-0.38 0.41-0.94 0.49-1.51-0.63-0.88-1-2.41-1.19-3.41 9.37-1.18 23.86-16.06 30.19-5.49-1.55 3.52-1.76 8.35 0.72 11.62"
          stroke="#000" opacity="0.4" stroke-linecap="round" clip-rule="evenodd" stroke-width="3" />
    <use opacity=".5" xlink:href="#a" transform="translate(8 6)" height="294" filter="url(#b)" width="400" y="0" x="0"/>
    <use xlink:href="#a" transform="translate(-2 -2)" height="294" width="400" y="0" x="0" fill="#0398fc"/>
    <g transform="translate(-12.29 -9.2526)" stroke="#000" stroke-linecap="round" clip-rule="evenodd" stroke-width=".5"
       fill="none">
        <path d="m235.89 69.435c-0.04 7.32 8.93 4.88 10.78 10 0.96 0.44 1.1 1.13 1.06 1.76-5.35 2.45-8.7 8.41-15.04 7.8-0.95 1.2-0.57 2.82-1.86 3.82 0.04 0.64 0.07 1.16 0.1 1.68 0.19 0.32 0.43 0.58 0.68 0.83 0.15 0.43 0.66 1.08 1.22 1.61 1.41 0.38 3.09 0.45 4.3-0.51 0.11-0.88 0.27-1.73 0.56-2.44 1.7-1.46 4.21-0.71 5.47 0.94 1.8 5.595 8.71 9.995 3.99 16.225 6.01 2.61 4.59 12 6.24 18.04"/>
        <path d="m253.39 129.19c3.38 0.01 6.52-3.18 9.9-1.39 1.8 1.88 3.62 3.98 3.25 6.76 2.85 2.46 7.25 1.39 10.35 3.63"/>
        <path d="m183.89 56.185c-2.63 6.54 3.52 11.25 7.35 15.65-0.22 11.53-9.93 20.04-4.3 32.305 6.66 1.02 10.38 10.17 5.57 14.81 2.82 4.76 11.76 5.39 10.13 13.24"/>
        <path d="m202.64 132.19c2.1 5.6 7.75 8.37 13.59 7.65 4.61 3.65 4.36 9.09 9.44 11.59 5.36-1.95 10.68-4.78 17.05-4.4"/>
        <path d="m242.72 147.03c0.51-3.11 2.83-5.07 4.06-7.8-0.77-0.62-1.93-0.25-2.59 0.27-1.95-0.35-3.06 1.38-4.8 1.65-0.45-0.11-0.85-0.5-1.25-0.91-0.4-2.52-0.62-5.05-1.21-7.53 1.23-3.42 4.53-5.71 7.67-6.82 3.48-0.82 4.73 3.76 7.73 4.21 0.37-0.28 0.71-0.65 1.06-0.91"/>
        <path d="m65.395 84.685c-0.05 1.76-0.58 2.61-0.34 3.5 0.32 0.29 0.86 0.38 1.4 0.45 18.95-4.44 34.595 18.455 27.52 33.475 4.25 0.11 3.75 4.59 2.35 7.21 4.755 2.92 9.845 6.24 12.355 11.08 0.57 0.85 1.07 1.53 1.71 1.73 6.54-2.04 7.22-8.43 12.53-11.76 8.6 2.2 17.29 5.54 26.14 7.99"/>
        <path d="m149.06 138.36c0.46-0.28 1.92-0.48 3.03-0.97 1.74-3.11 1.35-7.37 4.47-9.54 14.2-1.11 23.11 9.08 36.04 11.64 1.19 0.21 2.53 0.23 3.5-0.11 0.26-0.44 0.38-0.8 0.5-1.16-1.3-2.93-0.17-4.62 2.05-6.29 0.47-0.23 0.84-0.35 1.21-0.46 0.94 0.21 1.84 0.57 2.78 0.72"/>
        <path d="m148.89 229.19c8.98-3.31 15.29-10.86 19.29-20.71 5.35-13.21 14.18-20.07 25.44-25.56 13.71-6.68 23.29-4.45 36.23 6.99 0.74-0.1 1.58-0.23 2.24-0.52 1.18-2.07 2.75-4.63 5.55-4.2"/>
        <path d="m214.89 277.19c7.81-1.18 9.49-9.15 11.99-15.39-6.64-7.91-8.44-18.33-13.75-27.37 7.58 1.81 11.6-4.53 18.55-5.29 0.19-0.72 0.67-1.87 1.49-2.67 0.17-0.89 0.35-1.59 0.46-2.23-6.44-0.51-4.84-9.6-11.96-8.84 0.61-4.11 5.98-4.72 4-9.44 4.63-5.2 15.19-5.35 17.05-13.75-2.1-1.91-4.29-4.14-5.08-7.02"/>
        <path d="m351.89 64.185c-2.97 5.2-0.52 10.1-3.79 15.22-0.34 0.32-0.64 0.68-0.95 1.05-3.86 0.91-8.36 1.2-9.03 5.98-0.47 0.22-0.83 0.42-1.2 0.63-7.28-2.25-16.15-1.43-22.79-5.14-1.12-0.22-1.74 0.49-2.51 1-2.16 8.22-11.07 12.97-19.73 12.4-0.29 0.34-0.37 0.87-0.44 1.42 1.98 2.87 0.15 6.765 1.4 9.925-0.12 0.98-0.94 1.93-1.69 2.8-3.59-0.16-5.06 3.55-7.55 5.45 1.81 9.05-2 16.05-6.72 23.27"/>
        <path d="m276.89 138.19c6.91-0.86 6.52 7.33 12.21 6.81 0.77 0.57 1.24 1.44 1.67 2.16 0.1 5.07-5.44 2.96-8.09 4.83-0.47 2.4-2.69 4.56-1.64 7.16 2.18 1.08 3.99 2.61 6.09 3.8 0.76 1.44-0.45 2.85 0.01 4.24"/>
        <path d="m242.72 147.03c7.08 3.41 5.09 11.55 0.44 15.12 0.41 3.61 1.92 6.9 4.01 9.76 0.2 0.91 0.1 1.76-0.09 2.49-3.68 3.21-8.39 5.33-9.44 10.79"/>
        <path d="m249.39 274.69c3.55-9.62-2.47-19.29-1.85-28.85 1.11-1.26 1.87-2.76 3.07-3.92 3.02-0.79 6.82 0.91 9.09-1.76 0.07-1.95 1.63-2.31 3-3.01-0.66-2.87-1.14-6.09 0.23-8.91 4.37-3.96 9.82-7.43 10.72-13.28 0.67-0.38 1.38-0.97 2.13-1.37 1.86-0.13 3.26 1.92 5.1 1.44 2.02-3.31 0.3-7.56 1.82-11.02 2.21-0.25 2.63-2.3 2.99-4.03 1.43-0.09 2.75-0.24 4.03-0.95"/>
        <path d="m383.06 155.03c-0.04-0.13-0.07-0.26-0.11-0.39-4.92-3.24-10.31-5.8-14.77-9.74-7.89 4.08-11.33-2.07-15.94-7.06-4.33 0.16-9.41-0.79-13.27-0.08 0.89 2 1.15 4.37-0.13 6.23-5.99-0.14-11.24 2.04-17.15 2-5.74 9.46-16 13.22-21.84 22.16-4.08 0.99-8.25-1.6-12.71-0.96"/>
        <path d="m287.14 167.19c-0.87 1.92-2.31 3.55-3.16 5.46 0.13 5.95 3.8 9.85 9.14 11.3 3.12 4.27-0.94 7.37 0.14 11.64-0.98 1.34-3.18 1.54-3.54 3.44"/>
        <path d="m352.89 218.19c-0.66 0.35-1.2 0.8-1.72 1.28-9.15-3.3-17.66 1.37-26.25 0.69-1.06-2.55 1.17-6.9-3-7.69-1.02 0.12-2.21 0.26-2.83 0.78-4.25 6.73-11.78-7.7-18.74-1.15-0.6-0.17-1.82-0.3-2.66-0.71-0.98-5.38-4.39-8.28-7.97-12.37"/>
        <path d="m131.06 193.36c7.98-2.78 16.76-1.65 25.04-3.96 0.17-10.65-3.92-27.67 7-33.01-0.95-3.22 4.05-4.36 2.96-7.4-3.43-6.29-11.51-5.86-17.06-8.92-0.08-0.6-0.01-1.22 0.06-1.71"/>
    </g>
</svg>
